<?xml version="1.0" encoding="utf-8"?>
<svg version="1.1" xmlns:xlink="http://www.w3.org/1999/xlink" width="10px" height="10px" xmlns="http://www.w3.org/2000/svg">
  <g transform="matrix(1 0 0 1 -360 -1414 )">
    <path d="M 365 1414  C 367.8 1414  370 1416.2  370 1419  C 370 1421.8  367.8 1424  365 1424  C 362.2 1424  360 1421.8  360 1419  C 360 1416.2  362.2 1414  365 1414  Z " fill-rule="nonzero" fill="#ffffff" stroke="none" />
    <path d="M 365 1414.5  C 367.52 1414.5  369.5 1416.48  369.5 1419  C 369.5 1421.52  367.52 1423.5  365 1423.5  C 362.48 1423.5  360.5 1421.52  360.5 1419  C 360.5 1416.48  362.48 1414.5  365 1414.5  Z " stroke-width="1" stroke="#797979" fill="none" />
  </g>
</svg>