<?xml version="1.0" encoding="utf-8"?>
<svg version="1.1" xmlns:xlink="http://www.w3.org/1999/xlink" width="79px" height="132px" xmlns="http://www.w3.org/2000/svg">
  <g transform="matrix(1 0 0 1 -91 -298 )">
    <path d="M 91 298  L 170 298  L 170 430  L 91 430  L 91 298  " fill-rule="nonzero" fill="#cccccc" stroke="none" />
    <path d="M 97 304  L 164 304  L 164 424  L 97 424  L 97 304  " fill-rule="nonzero" fill="#ffffff" stroke="none" />
    <path d="M 138.005 329.65  C 134.687 329.65  132.08 327.043  132.08 323.725  C 132.08 320.407  134.687 317.8  138.005 317.8  C 141.323 317.8  143.93 320.407  143.93 323.725  C 143.93 327.043  141.323 329.65  138.005 329.65  " fill-rule="nonzero" fill="#cccccc" stroke="none" />
    <path d="M 99 422  L 99 358.2  L 114.75 329.2  L 136.8 352.4  L 149.4 346.6  L 162 352.4  L 162 422  L 99 422  " fill-rule="nonzero" fill="#169bd5" stroke="none" />
  </g>
</svg>