<?xml version="1.0" encoding="utf-8"?>
<svg version="1.1" xmlns:xlink="http://www.w3.org/1999/xlink" width="145px" height="134px" xmlns="http://www.w3.org/2000/svg">
  <defs>
    <mask fill="white" id="clip26">
      <path d="M 54 931  C 16.815 931  -13 901.185  -13 864  L -13 864  C -13 826.815  16.815 797  54 797  L 65 797  C 102.185 797  132 826.815  132 864  L 132 864  C 132 901.185  102.185 931  65 931  " fill-rule="evenodd" />
    </mask>
  </defs>
  <g transform="matrix(1 0 0 1 13 -797 )">
    <path d="M -13 797  L 132 797  L 132 931  L -13 931  L -13 797  " fill-rule="nonzero" fill="#cccccc" stroke="none" mask="url(#clip26)" />
    <path d="M -4 806  L 123 806  L 123 922  L -4 922  L -4 806  " fill-rule="nonzero" fill="#ffffff" stroke="none" mask="url(#clip26)" />
    <path d="M 72.45 837.2  C 66.822 837.2  62.4 832.778  62.4 827.15  C 62.4 821.522  66.822 817.1  72.45 817.1  C 78.078 817.1  82.5 821.522  82.5 827.15  C 82.5 832.778  78.078 837.2  72.45 837.2  " fill-rule="nonzero" fill="#cccccc" stroke="none" mask="url(#clip26)" />
    <path d="M -1 919  L -1 859.05  L 29 831.8  L 71 858.561379310345  L 95 848.15  L 119 858.561379310345  L 119 919  L -1 919  " fill-rule="nonzero" fill="#169bd5" stroke="none" mask="url(#clip26)" />
  </g>
</svg>