<?xml version="1.0" encoding="utf-8"?>
<svg version="1.1" xmlns:xlink="http://www.w3.org/1999/xlink" width="710px" height="708px" xmlns="http://www.w3.org/2000/svg">
  <g transform="matrix(1 0 0 1 0 -89 )">
    <path d="M 0 89  L 710 89  L 710 797  L 0 797  L 0 89  " fill-rule="nonzero" fill="#cccccc" stroke="none" />
    <path d="M 50 139  L 660 139  L 660 747  L 50 747  L 50 139  " fill-rule="nonzero" fill="#ffffff" stroke="none" />
    <path d="M 422.3 301.4  C 392.564 301.4  369.2 278.036  369.2 248.3  C 369.2 218.564  392.564 195.2  422.3 195.2  C 452.036 195.2  475.4 218.564  475.4 248.3  C 475.4 278.036  452.036 301.4  422.3 301.4  " fill-rule="nonzero" fill="#cccccc" stroke="none" />
    <path d="M 68 730  L 68 414.85  L 211.75 271.6  L 413 387.168450704225  L 528 357.55  L 643 387.168450704225  L 643 730  L 68 730  " fill-rule="nonzero" fill="#169bd5" stroke="none" />
  </g>
</svg>