<?xml version="1.0" encoding="utf-8"?>
<svg version="1.1" xmlns:xlink="http://www.w3.org/1999/xlink" width="237px" height="350px" xmlns="http://www.w3.org/2000/svg">
  <g transform="matrix(1 0 0 1 -123 -162 )">
    <path d="M 123 162  L 360 162  L 360 512  L 123 512  L 123 162  " fill-rule="nonzero" fill="#cccccc" stroke="none" />
    <path d="M 140 179  L 343 179  L 343 495  L 140 495  L 140 179  " fill-rule="nonzero" fill="#ffffff" stroke="none" />
    <path d="M 264.015 250.05  C 254.061 250.05  246.24 242.229  246.24 232.275  C 246.24 222.321  254.061 214.5  264.015 214.5  C 273.969 214.5  281.79 222.321  281.79 232.275  C 281.79 242.229  273.969 250.05  264.015 250.05  " fill-rule="nonzero" fill="#cccccc" stroke="none" />
    <path d="M 146 489  L 146 321.8  L 193.75 245.8  L 260.6 306.6  L 298.8 291.4  L 337 306.6  L 337 489  L 146 489  " fill-rule="nonzero" fill="#169bd5" stroke="none" />
  </g>
</svg>