<?xml version="1.0" encoding="utf-8"?>
<svg version="1.1" xmlns:xlink="http://www.w3.org/1999/xlink" width="56px" height="62px" xmlns="http://www.w3.org/2000/svg">
  <g transform="matrix(1 0 0 1 -41 -973 )">
    <path d="M 41 973  L 97 973  L 97 1035  L 41 1035  L 41 973  " fill-rule="nonzero" fill="#cccccc" stroke="none" />
    <path d="M 45 977  L 93 977  L 93 1031  L 45 1031  L 45 977  " fill-rule="nonzero" fill="#ffffff" stroke="none" />
    <path d="M 74.32 990.7  C 71.968 990.7  70.12 988.852  70.12 986.5  C 70.12 984.148  71.968 982.3  74.32 982.3  C 76.672 982.3  78.52 984.148  78.52 986.5  C 78.52 988.852  76.672 990.7  74.32 990.7  " fill-rule="nonzero" fill="#cccccc" stroke="none" />
    <path d="M 47 1030  L 47 1001.95  L 58.25 989.2  L 74 999.4  L 83 996.85  L 92 999.4  L 92 1030  L 47 1030  " fill-rule="nonzero" fill="#169bd5" stroke="none" />
  </g>
</svg>