<?xml version="1.0" standalone="no"?><!DOCTYPE svg PUBLIC "-//W3C//DTD SVG 1.1//EN" "http://www.w3.org/Graphics/SVG/1.1/DTD/svg11.dtd"><svg class="icon" width="48px" height="48.00px" viewBox="0 0 1024 1024" version="1.1" xmlns="http://www.w3.org/2000/svg"><path d="M943.104 490.496l-64.512 0c-8.192-47.104-51.2-84.992-102.4-84.992-51.2 0-94.208 33.792-102.4 84.992L68.608 490.496c-13.312 0-21.504 8.192-21.504 21.504 0 13.312 8.192 21.504 21.504 21.504l606.208 0c8.192 47.104 51.2 84.992 102.4 84.992 51.2 0 94.208-33.792 102.4-84.992l64.512 0c13.312 0 21.504-8.192 21.504-21.504C964.608 498.688 951.296 490.496 943.104 490.496zM776.192 575.488c-33.792 0-64.512-29.696-64.512-63.488 0-33.792 29.696-64.512 64.512-64.512 33.792 0 64.512 29.696 64.512 64.512C836.608 545.792 811.008 575.488 776.192 575.488zM68.608 222.208l106.496 0c8.192 47.104 51.2 84.992 102.4 84.992s94.208-33.792 102.4-84.992l563.2 0c13.312 0 21.504-8.192 21.504-21.504 0-13.312-8.192-21.504-21.504-21.504L375.808 179.2c-8.192-47.104-51.2-84.992-102.4-84.992s-94.208 33.792-102.4 84.992l-102.4 0c-13.312 0-21.504 8.192-21.504 21.504C47.104 208.896 55.296 222.208 68.608 222.208zM277.504 136.192c33.792 0 64.512 29.696 64.512 63.488s-29.696 64.512-64.512 64.512-64.512-29.696-64.512-64.512S238.592 136.192 277.504 136.192zM943.104 801.792 545.792 801.792c-8.192-47.104-51.2-84.992-102.4-84.992s-94.208 33.792-102.4 84.992L68.608 801.792c-13.312 0-21.504 8.192-21.504 21.504 0 12.288 8.192 21.504 21.504 21.504l273.408 0c8.192 47.104 51.2 84.992 102.4 84.992s94.208-33.792 102.4-84.992l396.288 0c13.312 0 21.504-8.192 21.504-21.504C964.608 815.104 951.296 801.792 943.104 801.792zM443.392 887.808c-33.792 0-63.488-29.696-63.488-63.488 0-33.792 29.696-64.512 63.488-64.512 33.792 0 64.512 29.696 64.512 64.512C503.808 858.112 478.208 887.808 443.392 887.808z" fill="#707070" /></svg>