<?xml version="1.0" standalone="no"?><!DOCTYPE svg PUBLIC "-//W3C//DTD SVG 1.1//EN" "http://www.w3.org/Graphics/SVG/1.1/DTD/svg11.dtd"><svg class="icon" width="48px" height="48.00px" viewBox="0 0 1024 1024" version="1.1" xmlns="http://www.w3.org/2000/svg"><path d="M512 46.545455c256 0 465.454545 209.454545 465.454545 465.454545s-209.454545 465.454545-465.454545 465.454545S46.545455 768 46.545455 512 256 46.545455 512 46.545455zM265.309091 314.181818c-27.927273 0-51.2 23.272727-51.2 51.2v290.909091c0 27.927273 23.272727 51.2 51.2 51.2h162.909091c27.927273 0 51.2-23.272727 51.2-51.2v-83.781818h-20.945455v83.781818c0 16.290909-13.963636 30.254545-30.254545 30.254546h-162.909091c-16.290909 0-30.254545-13.963636-30.254546-30.254546V365.381818c0-16.290909 13.963636-30.254545 30.254546-30.254545h162.909091c16.290909 0 30.254545 13.963636 30.254545 30.254545v83.781818h20.945455v-83.781818c0-27.927273-23.272727-51.2-51.2-51.2h-162.909091zM723.781818 512l-46.545454-30.254545-46.545455-30.254546v41.890909H393.309091v-41.890909l-46.545455 30.254546-46.545454 30.254545 46.545454 30.254545 46.545455 30.254546v-41.890909H628.363636v41.890909l46.545455-30.254546 48.872727-30.254545z m-148.945454-190.836364c-6.981818 9.309091 2.327273 18.618182 11.636363 16.290909 9.309091-4.654545 18.618182 0 27.927273 0 4.654545 0 6.981818-2.327273 9.309091-4.654545 2.327273-6.981818-2.327273-13.963636-9.309091-13.963636-6.981818-4.654545-32.581818-6.981818-39.563636 2.327272z m-11.636364 53.527273c0-4.654545-2.327273-6.981818-4.654545-9.309091-6.981818-2.327273-13.963636 2.327273-13.963637 9.309091v62.836364c0 4.654545 2.327273 6.981818 4.654546 9.309091 6.981818 2.327273 13.963636-2.327273 13.963636-9.309091v-62.836364z m0 207.127273c0-4.654545-2.327273-6.981818-4.654545-9.309091-6.981818-2.327273-13.963636 2.327273-13.963637 9.309091v62.836363c0 4.654545 2.327273 6.981818 4.654546 9.309091 6.981818 2.327273 13.963636-2.327273 13.963636-9.309091V581.818182z m18.618182 104.727273c-13.963636-4.654545-20.945455 13.963636-6.981818 18.618181 9.309091 4.654545 13.963636 4.654545 23.272727 4.654546 4.654545 0 6.981818-2.327273 9.309091-4.654546 2.327273-6.981818-2.327273-13.963636-9.309091-13.963636-6.981818-2.327273-9.309091-2.327273-16.290909-4.654545z m79.127273 2.327272c-4.654545 0-6.981818 2.327273-9.309091 4.654546-2.327273 6.981818 2.327273 13.963636 9.309091 13.963636h20.945454c4.654545 0 6.981818-2.327273 9.309091-4.654545 2.327273-6.981818-2.327273-13.963636-9.309091-13.963637h-20.945454z m81.454545 0c-4.654545 0-6.981818 2.327273-9.309091 4.654546-2.327273 6.981818 2.327273 13.963636 9.309091 13.963636h20.945455c18.618182-2.327273 11.636364-23.272727 0-20.945454-4.654545 2.327273-13.963636 2.327273-20.945455 2.327272z m46.545455-34.909091c0 4.654545 2.327273 6.981818 4.654545 9.309091 6.981818 2.327273 13.963636-2.327273 13.963636-9.309091v-20.945454c0-4.654545-2.327273-6.981818-4.654545-9.309091-6.981818-2.327273-13.963636 2.327273-13.963636 9.309091v20.945454z m0-81.454545c0 4.654545 2.327273 6.981818 4.654545 9.309091 6.981818 2.327273 13.963636-2.327273 13.963636-9.309091v-62.836364c0-4.654545-2.327273-6.981818-4.654545-9.309091-6.981818-2.327273-13.963636 2.327273-13.963636 9.309091v62.836364z m0-125.672727c0 4.654545 2.327273 6.981818 4.654545 9.309091 6.981818 2.327273 13.963636-2.327273 13.963636-9.309091v-62.836364c0-4.654545-2.327273-6.981818-4.654545-9.309091-6.981818-2.327273-13.963636 2.327273-13.963636 9.309091v62.836364z m-13.963637-107.054546c6.981818 4.654545 16.290909-2.327273 16.290909-11.636363 0-2.327273-2.327273-4.654545-4.654545-6.981819-6.981818-4.654545-16.290909-6.981818-25.6-6.981818-13.963636 0-13.963636 20.945455 0 20.945455 2.327273 0 9.309091 2.327273 13.963636 4.654545z m-76.8-4.654545c4.654545 0 6.981818-2.327273 9.309091-4.654546 2.327273-6.981818-2.327273-13.963636-9.309091-13.963636h-20.945454c-4.654545 0-6.981818 2.327273-9.309091 4.654545-2.327273 6.981818 2.327273 13.963636 9.309091 13.963637h20.945454z" /></svg>