<?xml version="1.0" encoding="utf-8"?>
<svg version="1.1" xmlns:xlink="http://www.w3.org/1999/xlink" width="396px" height="739px" xmlns="http://www.w3.org/2000/svg">
  <g transform="matrix(1 0 0 1 -167 -191 )">
    <path d="M 167 191  L 563 191  L 563 930  L 167 930  L 167 191  " fill-rule="nonzero" fill="#cccccc" stroke="none" />
    <path d="M 195 219  L 535 219  L 535 902  L 195 902  L 195 219  " fill-rule="nonzero" fill="#ffffff" stroke="none" />
    <path d="M 402.62 361.25  C 385.988 361.25  372.92 348.182  372.92 331.55  C 372.92 314.918  385.988 301.85  402.62 301.85  C 419.252 301.85  432.32 314.918  432.32 331.55  C 432.32 348.182  419.252 361.25  402.62 361.25  " fill-rule="nonzero" fill="#cccccc" stroke="none" />
    <path d="M 205 892  L 205 527.35  L 285 361.6  L 397 494.2  L 461 461.05  L 525 494.2  L 525 892  L 205 892  " fill-rule="nonzero" fill="#169bd5" stroke="none" />
  </g>
</svg>