<?xml version="1.0" encoding="utf-8"?>
<svg version="1.1" xmlns:xlink="http://www.w3.org/1999/xlink" width="115px" height="131px" xmlns="http://www.w3.org/2000/svg">
  <g transform="matrix(1 0 0 1 -96 -397 )">
    <path d="M 96 397  L 211 397  L 211 528  L 96 528  L 96 397  " fill-rule="nonzero" fill="#cccccc" stroke="none" />
    <path d="M 104 405  L 203 405  L 203 520  L 104 520  L 104 405  " fill-rule="nonzero" fill="#ffffff" stroke="none" />
    <path d="M 164.425 433.9  C 159.595 433.9  155.8 430.105  155.8 425.275  C 155.8 420.445  159.595 416.65  164.425 416.65  C 169.255 416.65  173.05 420.445  173.05 425.275  C 173.05 430.105  169.255 433.9  164.425 433.9  " fill-rule="nonzero" fill="#cccccc" stroke="none" />
    <path d="M 107 517  L 107 457.05  L 130.25 429.8  L 162.8 451.6  L 181.4 446.15  L 200 451.6  L 200 517  L 107 517  " fill-rule="nonzero" fill="#169bd5" stroke="none" />
  </g>
</svg>