<?xml version="1.0" encoding="utf-8"?>
<svg version="1.1" xmlns:xlink="http://www.w3.org/1999/xlink" width="40px" height="50px" xmlns="http://www.w3.org/2000/svg">
  <defs>
    <filter x="34px" y="387px" width="40px" height="50px" filterUnits="userSpaceOnUse" id="filter75">
      <feOffset dx="1" dy="1" in="SourceAlpha" result="shadowOffsetInner" />
      <feGaussianBlur stdDeviation="2.5" in="shadowOffsetInner" result="shadowGaussian" />
      <feComposite in2="shadowGaussian" operator="atop" in="SourceAlpha" result="shadowComposite" />
      <feColorMatrix type="matrix" values="0 0 0 0 0  0 0 0 0 0  0 0 0 0 0  0 0 0 0.698039215686274 0  " in="shadowComposite" />
    </filter>
    <g id="widget76">
      <path d="M 53 430.036928468354  C 47.2 420.40734059591  38.5 414.629587872444  38.5 405  C 38.5 399.985714285714  41.4 391.5  53 391.5  C 64.6 391.5  67.5 399.985714285714  67.5 405  C 67.5 414.629587872444  58.8 420.40734059591  53 430.036928468354  Z " fill-rule="nonzero" fill="#009dd9" stroke="none" />
      <path d="M 53 431  C 47 421  38 415  38 405  C 38 399.8  41 391  53 391  C 65 391  68 399.8  68 405  C 68 415  59 421  53 431  Z M 53 429.073856936707  C 58.6 419.81468119182  67 414.259175744887  67 405  C 67 400.171428571429  64.2 392  53 392  C 41.8 392  39 400.171428571429  39 405  C 39 414.259175744887  47.4 419.81468119182  53 429.073856936707  Z " fill-rule="nonzero" fill="#ffffff" stroke="none" />
    </g>
  </defs>
  <g transform="matrix(1 0 0 1 -34 -387 )">
    <use xlink:href="#widget76" filter="url(#filter75)" />
    <use xlink:href="#widget76" />
  </g>
</svg>