<?xml version="1.0" encoding="utf-8"?>
<svg version="1.1" xmlns:xlink="http://www.w3.org/1999/xlink" width="88px" height="139px" xmlns="http://www.w3.org/2000/svg">
  <g transform="matrix(1 0 0 1 -43 -496 )">
    <path d="M 43 496  L 131 496  L 131 635  L 43 635  L 43 496  " fill-rule="nonzero" fill="#cccccc" stroke="none" />
    <path d="M 49 502  L 125 502  L 125 629  L 49 629  L 49 502  " fill-rule="nonzero" fill="#ffffff" stroke="none" />
    <path d="M 95.36 530.05  C 91.664 530.05  88.76 527.146  88.76 523.45  C 88.76 519.754  91.664 516.85  95.36 516.85  C 99.056 516.85  101.96 519.754  101.96 523.45  C 101.96 527.146  99.056 530.05  95.36 530.05  " fill-rule="nonzero" fill="#cccccc" stroke="none" />
    <path d="M 51 627  L 51 559.35  L 69 528.6  L 94.2 553.2  L 108.6 547.05  L 123 553.2  L 123 627  L 51 627  " fill-rule="nonzero" fill="#169bd5" stroke="none" />
  </g>
</svg>