<?xml version="1.0" encoding="utf-8"?>
<svg version="1.1" xmlns:xlink="http://www.w3.org/1999/xlink" width="12px" height="12px" viewBox="381 164  12 12" xmlns="http://www.w3.org/2000/svg">
  <path d="M 387 164  C 390.36 164  393 166.64  393 170  C 393 173.36  390.36 176  387 176  C 383.64 176  381 173.36  381 170  C 381 166.64  383.64 164  387 164  Z " fill-rule="nonzero" fill="#f0f0f0" stroke="none" />
  <path d="M 387 164.5  C 390.08 164.5  392.5 166.92  392.5 170  C 392.5 173.08  390.08 175.5  387 175.5  C 383.92 175.5  381.5 173.08  381.5 170  C 381.5 166.92  383.92 164.5  387 164.5  Z " stroke-width="1" stroke="#797979" fill="none" />
  <path d="M 387 173  C 385.32 173  384 171.68  384 170  C 384 168.32  385.32 167  387 167  C 388.68 167  390 168.32  390 170  C 390 171.68  388.68 173  387 173  " fill-rule="nonzero" fill="#797979" stroke="none" />
</svg>