<?xml version="1.0" encoding="utf-8"?>
<svg version="1.1" xmlns:xlink="http://www.w3.org/1999/xlink" width="12px" height="12px" viewBox="381 74  12 12" xmlns="http://www.w3.org/2000/svg">
  <path d="M 387 74  C 390.36 74  393 76.64  393 80  C 393 83.36  390.36 86  387 86  C 383.64 86  381 83.36  381 80  C 381 76.64  383.64 74  387 74  Z " fill-rule="nonzero" fill="#f0f0f0" stroke="none" />
  <path d="M 387 74.5  C 390.08 74.5  392.5 76.92  392.5 80  C 392.5 83.08  390.08 85.5  387 85.5  C 383.92 85.5  381.5 83.08  381.5 80  C 381.5 76.92  383.92 74.5  387 74.5  Z " stroke-width="1" stroke="#797979" fill="none" />
  <path d="M 387 83  C 385.32 83  384 81.68  384 80  C 384 78.32  385.32 77  387 77  C 388.68 77  390 78.32  390 80  C 390 81.68  388.68 83  387 83  " fill-rule="nonzero" fill="#797979" stroke="none" />
</svg>