<?xml version="1.0" encoding="utf-8"?>
<svg version="1.1" xmlns:xlink="http://www.w3.org/1999/xlink" width="12px" height="12px" viewBox="381 194  12 12" xmlns="http://www.w3.org/2000/svg">
  <path d="M 387 194  C 390.36 194  393 196.64  393 200  C 393 203.36  390.36 206  387 206  C 383.64 206  381 203.36  381 200  C 381 196.64  383.64 194  387 194  Z " fill-rule="nonzero" fill="#ffffff" stroke="none" />
  <path d="M 387 194.5  C 390.08 194.5  392.5 196.92  392.5 200  C 392.5 203.08  390.08 205.5  387 205.5  C 383.92 205.5  381.5 203.08  381.5 200  C 381.5 196.92  383.92 194.5  387 194.5  Z " stroke-width="1" stroke="#797979" fill="none" />
  <path d="M 387 203  C 385.32 203  384 201.68  384 200  C 384 198.32  385.32 197  387 197  C 388.68 197  390 198.32  390 200  C 390 201.68  388.68 203  387 203  " fill-rule="nonzero" fill="#797979" stroke="none" />
</svg>